<svg xmlns="http://www.w3.org/2000/svg" width="26.557" height="34" viewBox="0 0 26.557 34"><g><g><path fill="#4677FF" d="M12.1,3.795a8.25,8.25,0,0,0-7.989,8.471A8.25,8.25,0,0,0,12.1,20.736a8.25,8.25,0,0,0,7.989-8.471A8.25,8.25,0,0,0,12.1,3.795Z" transform="translate(0 -3.795) translate(5.289 3.795) translate(-4.109 -3.795)"/></g><g><path fill="#4677FF" d="M26.531,31.081A12.877,12.877,0,0,0,13.678,19.013h-.8A12.879,12.879,0,0,0,0,31.893v1.529H26.557V31.893Q26.557,31.484,26.531,31.081Z" transform="translate(0 -3.795) translate(0 23.386) translate(0 -19.013)"/></g></g></svg>